<svg width="356" height="2205" viewBox="0 0 356 2205" fill="none" xmlns="http://www.w3.org/2000/svg">
<path d="M57.3244 94.9971C40.5217 28.9752 0 0 0 0L5.34058e-05 1138C43.0683 980.763 119.629 917.869 108.541 850.388C97.4526 782.907 39.3726 644.015 104.845 489.399C170.317 334.783 47.2924 351.162 43.0683 220.786C40.7056 147.863 73.1645 157.237 57.3244 94.9971Z" fill="#5893A6" fill-opacity="0.7"/>
<path d="M298.676 1022.69C315.478 947.845 356 915 356 915L356 2205C312.932 2026.76 236.371 1955.47 247.459 1878.97C258.547 1802.48 316.627 1645.03 251.155 1469.77C185.683 1294.5 308.708 1313.07 312.932 1165.28C315.294 1082.61 282.836 1093.24 298.676 1022.69Z" fill="#5893A6" fill-opacity="0.7"/>
</svg>
